<svg xmlns="http://www.w3.org/2000/svg" width="18" height="18" viewBox="0 0 18 18">
  <g id="그룹_139" data-name="그룹 139" transform="translate(-190 -211)">
    <rect id="사각형_64" data-name="사각형 64" width="18" height="18" transform="translate(190 211)" fill="rgba(255,0,0,0)"/>
    <circle id="타원_2" data-name="타원 2" cx="9" cy="9" r="9" transform="translate(190 211)" fill="#f8f8f8"/>
    <path id="패스_161" data-name="패스 161" d="M121-832h.713l4.887-4.887-.713-.713L121-832.713Zm-.5,1a.484.484,0,0,1-.356-.144A.484.484,0,0,1,120-831.5v-1.213a.988.988,0,0,1,.075-.381.97.97,0,0,1,.212-.319l6.313-6.3a1.123,1.123,0,0,1,.331-.212.987.987,0,0,1,.381-.075,1.033,1.033,0,0,1,.388.075.878.878,0,0,1,.325.225l.687.7a.817.817,0,0,1,.219.325,1.083,1.083,0,0,1,.069.375,1.066,1.066,0,0,1-.069.381.936.936,0,0,1-.219.331l-6.3,6.3a.972.972,0,0,1-.319.213.987.987,0,0,1-.381.075Zm7.5-7.3-.7-.7Zm-1.762,1.062-.35-.362.713.713Z" transform="translate(75 1055)" fill="#555"/>
  </g>
</svg>
