<svg xmlns="http://www.w3.org/2000/svg" width="18" height="18" viewBox="0 0 18 18">
  <g id="그룹_132" data-name="그룹 132" transform="translate(-636 -136)">
    <g id="구성_요소_1_80" data-name="구성 요소 1 – 80" transform="translate(636 136)">
      <rect id="사각형_36" data-name="사각형 36" width="18" height="18" fill="rgba(244,83,83,0)"/>
    </g>
    <g id="그룹_102" data-name="그룹 102" transform="translate(514 -259)">
      <path id="사각형_52" data-name="사각형 52" d="M9,0H9a9,9,0,0,1,9,9V9a9,9,0,0,1-9,9H2.25A2.25,2.25,0,0,1,0,15.75V9A9,9,0,0,1,9,0Z" transform="translate(122 395)" fill="#b0bfda"/>
      <path id="패스_152" data-name="패스 152" d="M400.875-838.25a.843.843,0,0,1-.618-.257.843.843,0,0,1-.257-.618.843.843,0,0,1,.257-.618.843.843,0,0,1,.618-.257.843.843,0,0,1,.618.257.843.843,0,0,1,.257.618.843.843,0,0,1-.257.618A.843.843,0,0,1,400.875-838.25Zm-.656,6.125v-5.25h1.313v5.25Z" transform="translate(-270.125 1240.063)" fill="#164194"/>
    </g>
  </g>
</svg>
