<svg width="239" height="41" viewBox="0 0 239 41" fill="none" xmlns="http://www.w3.org/2000/svg">
<g clip-path="url(#clip0_75_12304)">
<path d="M41.029 27.3687C40.2805 27.3687 39.6745 26.7669 39.6745 26.0235C39.6745 19.5244 34.349 14.243 27.8116 14.243C27.063 14.243 26.457 13.6412 26.457 12.8979C26.457 12.1545 27.063 11.5527 27.8116 11.5527C35.8533 11.5527 42.3907 18.0448 42.3907 26.0306C42.3907 26.774 41.7847 27.3757 41.0362 27.3757L41.029 27.3687Z" fill="#2A316A"/>
<path d="M54.0605 40.4998C53.312 40.4998 52.706 39.898 52.706 39.1546C52.706 32.7546 47.4589 27.4732 41.0142 27.3812C40.2656 27.3741 39.6668 26.7582 39.6739 26.0148C39.681 25.2714 40.2941 24.6697 41.0498 24.6838C48.9703 24.7971 55.4151 31.2821 55.4151 39.1476C55.4151 39.8909 54.8091 40.4927 54.0605 40.4927V40.4998Z" fill="#2A316A"/>
<path d="M27.8025 40.5015C27.0539 40.5015 26.4479 39.8997 26.4479 39.1563C26.4479 32.6572 21.1224 27.3758 14.585 27.3758C13.8364 27.3758 13.2305 26.774 13.2305 26.0307C13.2305 25.2873 13.8364 24.6855 14.585 24.6855C22.6267 24.6855 29.1641 31.1776 29.1641 39.1634C29.1641 39.9068 28.5581 40.5086 27.8096 40.5086L27.8025 40.5015Z" fill="#2A316A"/>
<path d="M1.35454 40.5007C0.605978 40.5007 0 39.899 0 39.1556C0 31.1698 6.53744 24.6777 14.5791 24.6777C15.3277 24.6777 15.9337 25.2795 15.9337 26.0229C15.9337 26.7662 15.3277 27.368 14.5791 27.368C8.03456 27.368 2.71621 32.6565 2.71621 39.1485C2.71621 39.8919 2.11023 40.4937 1.36167 40.4937L1.35454 40.5007Z" fill="#2A316A"/>
<path d="M41.0279 27.3758H40.9209C40.1724 27.3758 39.5664 26.774 39.5664 26.0307C39.5664 25.2873 40.1724 24.6855 40.9209 24.6855C41.6695 24.6855 42.3325 25.2873 42.3325 26.0307C42.3325 26.774 41.7764 27.3758 41.0279 27.3758Z" fill="#2A316A"/>
<path d="M14.5801 26.0234C21.8803 26.0234 27.8047 20.1473 27.8047 12.8906L14.5801 26.0234Z" fill="#6DB544"/>
<path d="M14.5791 27.3687C13.8306 27.3687 13.2246 26.7669 13.2246 26.0235C13.2246 25.2802 13.8306 24.6784 14.5791 24.6784C21.1237 24.6784 26.4421 19.3899 26.4421 12.8979C26.4421 12.1545 27.048 11.5527 27.7966 11.5527C28.5452 11.5527 29.1511 12.1545 29.1511 12.8979C29.1511 20.8837 22.6137 27.3757 14.572 27.3757L14.5791 27.3687Z" fill="#2A316A"/>
<path d="M14.5781 26.0234C14.5781 18.7738 20.4953 12.8906 27.8027 12.8906L14.5781 26.0234Z" fill="#6DB544"/>
<path d="M14.5791 27.3679C13.8306 27.3679 13.2246 26.7662 13.2246 26.0228C13.2246 18.037 19.762 11.5449 27.8037 11.5449C28.5523 11.5449 29.1583 12.1467 29.1583 12.8901C29.1583 13.6334 28.5523 14.2352 27.8037 14.2352C21.2592 14.2352 15.9408 19.5237 15.9408 26.0157C15.9408 26.7591 15.3348 27.3608 14.5863 27.3608L14.5791 27.3679Z" fill="#2A316A"/>
<path d="M41.0264 27.3829C40.2779 27.3829 39.6719 26.7811 39.6719 26.0378C39.6719 25.2944 40.2779 24.6855 41.0264 24.6855C41.775 24.6855 42.381 25.2873 42.381 26.0307C42.381 26.7811 41.775 27.39 41.0264 27.39V27.3829Z" fill="#2A316A"/>
<path d="M27.7969 39.1491C35.0971 39.1491 41.0143 33.2801 41.0215 26.0305C40.9929 26.0234 40.9502 26.0234 40.9216 26.0234H40.829C33.6214 26.1367 27.7969 31.9633 27.7969 39.1491Z" fill="#1297A3"/>
<path d="M27.7959 40.5007C27.0474 40.5007 26.4414 39.899 26.4414 39.1556C26.4414 31.2972 32.8862 24.7981 40.8067 24.6777C41.0134 24.6848 41.1631 24.6777 41.3556 24.7273C41.9616 24.876 42.3822 25.4211 42.3822 26.037C42.3751 34.0158 35.8305 40.5007 27.7959 40.5007ZM39.5804 27.4671C34.1765 28.1538 29.9062 32.4158 29.2432 37.7184C34.6257 37.0671 38.9103 32.8122 39.5804 27.4671Z" fill="#2A316A"/>
<path d="M41.0279 27.3758H40.9209C40.1724 27.3758 39.5664 26.774 39.5664 26.0307C39.5664 25.2873 40.1724 24.6855 40.9209 24.6855C41.6695 24.6855 42.3325 25.2873 42.3325 26.0307C42.3325 26.774 41.7764 27.3758 41.0279 27.3758Z" fill="#2A316A"/>
<path d="M54.0606 40.5008H28.1319C27.3833 40.5008 26.7773 39.899 26.7773 39.1557C26.7773 38.4123 27.3833 37.8105 28.1319 37.8105H54.0606C54.8092 37.8105 55.4152 38.4123 55.4152 39.1557C55.4152 39.899 54.8092 40.5008 54.0606 40.5008Z" fill="#2A316A"/>
<path d="M28.1259 7.73597C29.7638 7.73597 31.0916 6.41739 31.0916 4.79084C31.0916 3.16428 29.7638 1.8457 28.1259 1.8457C26.488 1.8457 25.1602 3.16428 25.1602 4.79084C25.1602 6.41739 26.488 7.73597 28.1259 7.73597Z" fill="#FFD96E"/>
<path d="M28.125 9.08761C25.7438 9.08761 23.8047 7.16195 23.8047 4.79027C23.8047 2.41858 25.7438 0.5 28.125 0.5C30.5061 0.5 32.4524 2.42566 32.4524 4.79027C32.4524 7.15487 30.5132 9.08761 28.125 9.08761ZM28.125 3.19734C27.2409 3.19734 26.5138 3.91239 26.5138 4.79734C26.5138 5.6823 27.2338 6.39734 28.125 6.39734C29.0161 6.39734 29.7361 5.6823 29.7361 4.79734C29.7361 3.91239 29.0161 3.19734 28.125 3.19734Z" fill="#2A316A"/>
<path d="M80.3459 30.3411H83.8178V19.0137H80.3459V21.0738H75.3555V23.9694H80.3459V25.5836H75.3555V28.4792H80.3459V30.3411Z" fill="#28316A"/>
<path d="M71.413 27.8632C72.3612 27.0208 73.0171 26.0154 73.3735 24.8544C73.73 23.6933 73.9082 22.334 73.9082 20.7765V19.0137H61.7031V21.9871H70.4363C70.3722 22.8296 70.2082 23.58 69.9658 24.2314C69.7163 24.8827 69.2386 25.4491 68.54 25.9305C67.8413 26.4119 66.8931 26.78 65.6955 27.0349C64.4978 27.2898 63.1646 27.4172 61.7031 27.4172V30.3907C63.8989 30.3907 65.8238 30.1783 67.4777 29.7606C69.1317 29.3429 70.4435 28.7057 71.4059 27.8632H71.413Z" fill="#28316A"/>
<path d="M82.9825 33.1017C82.6261 32.7124 82.1841 32.415 81.6637 32.1955C81.1361 31.9831 80.5301 31.877 79.8315 31.877H66.6283C65.9439 31.877 65.345 31.9831 64.8317 32.1955C64.3184 32.4079 63.8835 32.7124 63.5342 33.1017C63.1849 33.4911 62.9211 33.9442 62.7357 34.461C62.5504 34.9778 62.4648 35.5442 62.4648 36.1601C62.4648 36.7761 62.5575 37.3637 62.7357 37.8947C62.9211 38.4256 63.1849 38.8787 63.5342 39.2681C63.8835 39.6575 64.3184 39.9548 64.8317 40.1743C65.345 40.3867 65.9439 40.5 66.6283 40.5H79.8315C80.5301 40.5 81.1432 40.3938 81.6637 40.1743C82.1841 39.9619 82.6261 39.6575 82.9825 39.2681C83.339 38.8787 83.6099 38.4185 83.7953 37.8947C83.9806 37.3637 84.0662 36.7902 84.0662 36.1601C84.0662 35.5301 83.9735 34.9849 83.7953 34.461C83.617 33.9371 83.339 33.484 82.9825 33.1017ZM80.2236 37.1584C80.0097 37.4062 79.6675 37.5265 79.197 37.5265H67.2699C66.7851 37.5265 66.4429 37.4062 66.2362 37.1584C66.0294 36.9106 65.9225 36.5778 65.9225 36.1672C65.9225 35.7849 66.0294 35.4805 66.2362 35.2398C66.4429 34.9991 66.7922 34.8787 67.2699 34.8787H79.197C79.6604 34.8787 80.0026 34.9991 80.2236 35.2398C80.4374 35.4805 80.5444 35.792 80.5444 36.1672C80.5444 36.5778 80.4374 36.9106 80.2236 37.1584Z" fill="#28316A"/>
<path d="M109.527 19.0137H106.055V40.5004H109.527V19.0137Z" fill="#28316A"/>
<path d="M135.226 19.0137H131.754V40.5004H135.226V19.0137Z" fill="#28316A"/>
<path d="M138.82 36.0901H148.381V40.5008H151.895V36.0901H160.928V33.0176H138.82V36.0901Z" fill="#28316A"/>
<path d="M141.899 31.5506C142.477 31.763 143.154 31.8762 143.931 31.8762H155.837C156.599 31.8762 157.277 31.77 157.854 31.5506C158.439 31.3382 158.916 31.0479 159.287 30.6939C159.665 30.34 159.943 29.9293 160.135 29.4692C160.328 29.009 160.421 28.5276 160.421 28.032C160.421 27.5364 160.328 27.055 160.135 26.5948C159.943 26.1346 159.658 25.724 159.287 25.3771C158.916 25.0302 158.432 24.747 157.854 24.5346C157.27 24.3223 156.599 24.209 155.837 24.209H143.931C143.147 24.209 142.469 24.3152 141.899 24.5346C141.329 24.7541 140.844 25.0302 140.466 25.3771C140.081 25.724 139.796 26.1276 139.604 26.5948C139.411 27.055 139.318 27.5364 139.318 28.032C139.318 28.5276 139.411 29.009 139.604 29.4692C139.796 29.9293 140.081 30.34 140.466 30.6939C140.851 31.0479 141.329 31.3382 141.899 31.5506ZM143.197 27.4161C143.439 27.2815 143.888 27.2178 144.558 27.2178H155.188C155.872 27.2178 156.336 27.2886 156.585 27.4302C156.835 27.5718 156.963 27.7771 156.963 28.0391C156.963 28.3223 156.842 28.5276 156.585 28.6692C156.336 28.8108 155.872 28.8815 155.188 28.8815H144.558C143.895 28.8815 143.439 28.8108 143.197 28.6692C142.954 28.5276 142.833 28.3152 142.833 28.0391C142.833 27.763 142.954 27.5506 143.197 27.4161Z" fill="#28316A"/>
<path d="M151.325 18.1699H147.981V20.131H138.82V23.1044H160.928V20.131H151.325V18.1699Z" fill="#28316A"/>
<path d="M164.527 21.6898H169.069V23.573H164.527V26.2491H186.642V23.573H181.773V21.6898H186.642V19.0137H164.527V21.6898ZM172.412 21.6898H178.429V23.573H172.412V21.6898Z" fill="#28316A"/>
<path d="M184.09 30.9348H164.527V33.5614H182.493C182.728 33.5614 182.899 33.6109 183.006 33.71C183.113 33.8092 183.17 34.0145 183.17 34.326V34.5525H164.527V37.7454C164.527 38.6375 164.727 39.3171 165.126 39.7915C165.525 40.2587 166.174 40.4994 167.072 40.4994H186.635V37.8729H168.669C168.434 37.8729 168.263 37.8233 168.156 37.7242C168.049 37.6251 167.992 37.4198 167.992 37.1012V36.9525H186.635V33.6817C186.635 32.7897 186.435 32.11 186.036 31.6357C185.637 31.1614 184.988 30.9277 184.09 30.9277V30.9348Z" fill="#28316A"/>
<path d="M186.642 27.3184H164.527V29.8953H186.642V27.3184Z" fill="#28316A"/>
<path d="M192.771 30.8855H201.305V28.1811H194.418C194.133 28.1811 193.919 28.0961 193.769 27.9333C193.619 27.7705 193.541 27.4731 193.541 27.0413V26.3191H201.076V21.7598C201.076 20.8678 200.877 20.1882 200.478 19.7138C200.078 19.2466 199.43 19.0059 198.531 19.0059H190.219V21.7103H196.885C197.17 21.7103 197.376 21.7952 197.519 21.9581C197.662 22.1209 197.733 22.4182 197.733 22.8501V23.6218H190.219V28.1315C190.219 29.0236 190.411 29.7032 190.803 30.1775C191.195 30.6519 191.844 30.8855 192.764 30.8855H192.771Z" fill="#28316A"/>
<path d="M209.241 23.6225H206.724V19.0137H203.381V31.0066H206.724V26.6951H209.241V31.0066H212.585V19.0137H209.241V23.6225Z" fill="#28316A"/>
<path d="M208.941 37.3139C208.342 37.236 207.772 37.144 207.23 37.0307C206.688 36.9174 206.239 36.7759 205.868 36.6059C205.105 36.2732 204.507 35.8484 204.086 35.3316C203.665 34.8148 203.451 34.1705 203.451 33.413V32.4219H199.88V33.413C199.88 34.1705 199.666 34.8148 199.245 35.3316C198.817 35.8484 198.212 36.2803 197.413 36.6059C197.028 36.7688 196.572 36.9104 196.037 37.0307C195.502 37.144 194.932 37.2431 194.326 37.3139C193.72 37.3847 193.1 37.4413 192.48 37.4767C191.852 37.5121 191.268 37.5263 190.719 37.5263V40.4998C191.204 40.4998 191.731 40.4998 192.301 40.4856C192.879 40.4785 193.456 40.4502 194.048 40.4077C194.64 40.3652 195.21 40.3157 195.773 40.2449C196.329 40.1812 196.836 40.0962 197.285 39.9971C198.183 39.7635 199.017 39.452 199.78 39.0697C200.543 38.6803 201.177 38.1422 201.676 37.4484C202.161 38.1422 202.781 38.6874 203.537 39.0697C204.293 39.459 205.12 39.7705 206.018 39.9971C206.467 40.0962 206.966 40.1812 207.515 40.2449C208.064 40.3086 208.634 40.3652 209.226 40.4077C209.818 40.4502 210.402 40.4714 210.973 40.4856C211.55 40.4927 212.085 40.4998 212.584 40.4998V37.5263C212.021 37.5263 211.422 37.5121 210.787 37.4767C210.153 37.4413 209.54 37.3918 208.941 37.3139Z" fill="#28316A"/>
<path d="M238.042 21.9659V19.0137H215.928V21.9659H220.469V24.0969H215.928V27.0491H225.21V28.4367H215.928V31.4385H238.042V28.4367H228.71V27.0491H238.042V24.0969H233.173V21.9659H238.042ZM229.83 24.0969H223.813V21.9659H229.83V24.0969Z" fill="#28316A"/>
<path d="M215.935 37.8034C215.935 38.1503 215.985 38.4831 216.085 38.8087C216.184 39.1344 216.341 39.4176 216.548 39.6795C216.755 39.9344 217.011 40.1397 217.318 40.2884C217.624 40.437 217.981 40.5078 218.38 40.5078H238.042V32.8477H215.928V37.8034H215.935ZM219.4 35.8423H234.57V37.499H219.949C219.585 37.499 219.4 37.3078 219.4 36.9255V35.8353V35.8423Z" fill="#28316A"/>
<path d="M99.8653 22.0296V19.0137H87.6602V22.0154H96.372L99.8653 22.0296Z" fill="#28316A"/>
<path fill-rule="evenodd" clip-rule="evenodd" d="M99.8651 22.0215L88.7507 37.7454C88.7507 37.7454 88.2802 24.9454 99.8651 22.0215Z" fill="#6DB544"/>
<path fill-rule="evenodd" clip-rule="evenodd" d="M99.8644 22.0215L88.75 37.7454C88.75 37.7454 101.034 33.8374 99.8644 22.0215Z" fill="#6DB544"/>
<path d="M125.572 22.0296V19.0137H113.367V22.0154H122.079L125.572 22.0296Z" fill="#28316A"/>
<path fill-rule="evenodd" clip-rule="evenodd" d="M125.574 22.0215L114.46 37.7454C114.46 37.7454 113.989 24.9454 125.574 22.0215Z" fill="#1297A3"/>
<path fill-rule="evenodd" clip-rule="evenodd" d="M125.575 22.0215L114.461 37.7454C114.461 37.7454 126.744 33.8374 125.575 22.0215Z" fill="#1297A3"/>
</g>
<defs>
<clipPath id="clip0_75_12304">
<rect width="238.042" height="40" fill="white" transform="translate(0 0.5)"/>
</clipPath>
</defs>
</svg>
