<svg width="110" height="40" viewBox="0 0 110 40" fill="none" xmlns="http://www.w3.org/2000/svg">
<g clip-path="url(#clip0_95_14454)">
<path d="M70.8468 0H37.7891V11.1956H70.8468V0Z" fill="#02983B"/>
<path d="M67.3444 24.7219L37.7891 39.9997V28.1066L70.8468 11.1953V18.6353C70.8468 21.1456 69.7639 23.4716 67.3444 24.7219Z" fill="#004097"/>
<path d="M109.388 0H75.582V11.1956H109.388V0Z" fill="#02983B"/>
<path d="M33.0578 0H0V11.1956H33.0578V0Z" fill="#02983B"/>
<path d="M29.5578 24.7219L0 39.9997V28.1066L33.0578 11.1953V18.6353C33.0578 21.1456 31.9723 23.4716 29.5578 24.7219Z" fill="#004097"/>
<path d="M75.582 20.9785V26.7212C75.582 29.7326 78.0286 32.1741 81.0486 32.1741H109.391V20.9785H75.5845H75.582Z" fill="#004097"/>
</g>
<defs>
<clipPath id="clip0_95_14454">
<rect width="109.388" height="40" fill="white"/>
</clipPath>
</defs>
</svg>
