<svg xmlns="http://www.w3.org/2000/svg" width="18" height="18" viewBox="0 0 18 18">
  <g id="그룹_114" data-name="그룹 114" transform="translate(48 114) rotate(180)">
    <g id="구성_요소_1_16" data-name="구성 요소 1 – 16" transform="translate(30 96)">
      <rect id="사각형_36" data-name="사각형 36" width="18" height="18" fill="rgba(244,83,83,0)"/>
    </g>
    <path id="패스_8" data-name="패스 8" d="M200.007-761.848l-6.363,6.363a.868.868,0,0,1-.643.271.915.915,0,0,1-.655-.29.965.965,0,0,1-.277-.649.861.861,0,0,1,.277-.649l7.8-7.8a1.018,1.018,0,0,1,.365-.244,1.181,1.181,0,0,1,.414-.071,1.182,1.182,0,0,1,.414.071,1.018,1.018,0,0,1,.365.244l7.8,7.8a.88.88,0,0,1,.262.633.922.922,0,0,1-.262.664.905.905,0,0,1-.658.286.906.906,0,0,1-.658-.286l-6.344-6.344v14a.893.893,0,0,1-.265.658.893.893,0,0,1-.658.265.893.893,0,0,1-.658-.265.893.893,0,0,1-.265-.658Z" transform="translate(-162.07 860.92)" fill="#e8e8e8"/>
  </g>
</svg>
